<svg xmlns="http://www.w3.org/2000/svg" viewBox="0 0 512 512" width="100%" height="100%">
  <circle cx="256" cy="256" r="240" fill="#00ADB5" opacity="0.1" />
  
  <rect x="64" y="160" width="384" height="200" rx="32" fill="#124170" />
  
  <rect x="96" y="192" width="72" height="80" rx="12" fill="#ffffff" opacity="0.9" />
  <rect x="184" y="192" width="72" height="80" rx="12" fill="#ffffff" opacity="0.9" />
  <rect x="272" y="192" width="72" height="80" rx="12" fill="#ffffff" opacity="0.9" />
  
  <path d="M360 192 h 40 q 12 0 16 12 l 8 68 h -64 v -80 z" fill="#ffffff" opacity="0.9" />
  
  <rect x="64" y="300" width="384" height="12" fill="#00ADB5" />
  
  <circle cx="144" cy="360" r="40" fill="#091624" />
  <circle cx="144" cy="360" r="16" fill="#00ADB5" />
  
  <circle cx="368" cy="360" r="40" fill="#091624" />
  <circle cx="368" cy="360" r="16" fill="#00ADB5" />
  
  <rect x="436" y="320" width="12" height="20" rx="4" fill="#AAFFC7" />
  <rect x="64" y="320" width="8" height="20" rx="4" fill="#ef4444" />
</svg>
